%TF.GenerationSoftware,KiCad,Pcbnew,(6.0.9-0)*%
%TF.CreationDate,2022-12-03T16:28:11+09:00*%
%TF.ProjectId,LEDchika,4c454463-6869-46b6-912e-6b696361645f,rev?*%
%TF.SameCoordinates,Original*%
%TF.FileFunction,Drillmap*%
%TF.FilePolarity,Positive*%
%FSLAX45Y45*%
G04 Gerber Fmt 4.5, Leading zero omitted, Abs format (unit mm)*
G04 Created by KiCad (PCBNEW (6.0.9-0)) date 2022-12-03 16:28:11*
%MOMM*%
%LPD*%
G01*
G04 APERTURE LIST*
%ADD10C,0.100000*%
%ADD11C,0.200000*%
%ADD12C,0.080000*%
%ADD13C,0.090000*%
%ADD14C,0.110000*%
G04 APERTURE END LIST*
D10*
X16000000Y-13000000D02*
X14000000Y-13000000D01*
X14000000Y-11000000D01*
X16000000Y-11000000D01*
X16000000Y-13000000D01*
D11*
D12*
X14210000Y-11360000D02*
X14290000Y-11440000D01*
X14290000Y-11360000D02*
X14210000Y-11440000D01*
X14210000Y-12376000D02*
X14290000Y-12456000D01*
X14290000Y-12376000D02*
X14210000Y-12456000D01*
X15460000Y-11410000D02*
X15540000Y-11490000D01*
X15540000Y-11410000D02*
X15460000Y-11490000D01*
X15460000Y-11660000D02*
X15540000Y-11740000D01*
X15540000Y-11660000D02*
X15460000Y-11740000D01*
D13*
X14791000Y-11500000D02*
G75*
G03*
X14791000Y-11500000I-45000J0D01*
G01*
X15045000Y-11500000D02*
G75*
G03*
X15045000Y-11500000I-45000J0D01*
G01*
D14*
X15025000Y-12120000D02*
X15025000Y-12230000D01*
X14970000Y-12175000D02*
X15080000Y-12175000D01*
X15025000Y-12570000D02*
X15025000Y-12680000D01*
X14970000Y-12625000D02*
X15080000Y-12625000D01*
X15675000Y-12120000D02*
X15675000Y-12230000D01*
X15620000Y-12175000D02*
X15730000Y-12175000D01*
X15675000Y-12570000D02*
X15675000Y-12680000D01*
X15620000Y-12625000D02*
X15730000Y-12625000D01*
D11*
X14252619Y-13315476D02*
X14252619Y-13115476D01*
X14300238Y-13115476D01*
X14328809Y-13125000D01*
X14347857Y-13144048D01*
X14357381Y-13163095D01*
X14366905Y-13201190D01*
X14366905Y-13229762D01*
X14357381Y-13267857D01*
X14347857Y-13286905D01*
X14328809Y-13305952D01*
X14300238Y-13315476D01*
X14252619Y-13315476D01*
X14452619Y-13315476D02*
X14452619Y-13182143D01*
X14452619Y-13220238D02*
X14462143Y-13201190D01*
X14471667Y-13191667D01*
X14490714Y-13182143D01*
X14509762Y-13182143D01*
X14576428Y-13315476D02*
X14576428Y-13182143D01*
X14576428Y-13115476D02*
X14566905Y-13125000D01*
X14576428Y-13134524D01*
X14585952Y-13125000D01*
X14576428Y-13115476D01*
X14576428Y-13134524D01*
X14700238Y-13315476D02*
X14681190Y-13305952D01*
X14671667Y-13286905D01*
X14671667Y-13115476D01*
X14805000Y-13315476D02*
X14785952Y-13305952D01*
X14776428Y-13286905D01*
X14776428Y-13115476D01*
X15033571Y-13315476D02*
X15033571Y-13115476D01*
X15100238Y-13258333D01*
X15166905Y-13115476D01*
X15166905Y-13315476D01*
X15347857Y-13315476D02*
X15347857Y-13210714D01*
X15338333Y-13191667D01*
X15319286Y-13182143D01*
X15281190Y-13182143D01*
X15262143Y-13191667D01*
X15347857Y-13305952D02*
X15328809Y-13315476D01*
X15281190Y-13315476D01*
X15262143Y-13305952D01*
X15252619Y-13286905D01*
X15252619Y-13267857D01*
X15262143Y-13248809D01*
X15281190Y-13239286D01*
X15328809Y-13239286D01*
X15347857Y-13229762D01*
X15443095Y-13182143D02*
X15443095Y-13382143D01*
X15443095Y-13191667D02*
X15462143Y-13182143D01*
X15500238Y-13182143D01*
X15519286Y-13191667D01*
X15528809Y-13201190D01*
X15538333Y-13220238D01*
X15538333Y-13277381D01*
X15528809Y-13296428D01*
X15519286Y-13305952D01*
X15500238Y-13315476D01*
X15462143Y-13315476D01*
X15443095Y-13305952D01*
X15624048Y-13296428D02*
X15633571Y-13305952D01*
X15624048Y-13315476D01*
X15614524Y-13305952D01*
X15624048Y-13296428D01*
X15624048Y-13315476D01*
X15624048Y-13191667D02*
X15633571Y-13201190D01*
X15624048Y-13210714D01*
X15614524Y-13201190D01*
X15624048Y-13191667D01*
X15624048Y-13210714D01*
D12*
X13915000Y-13605000D02*
X13995000Y-13685000D01*
X13995000Y-13605000D02*
X13915000Y-13685000D01*
D11*
X14290714Y-13535476D02*
X14309762Y-13535476D01*
X14328809Y-13545000D01*
X14338333Y-13554524D01*
X14347857Y-13573571D01*
X14357381Y-13611667D01*
X14357381Y-13659286D01*
X14347857Y-13697381D01*
X14338333Y-13716428D01*
X14328809Y-13725952D01*
X14309762Y-13735476D01*
X14290714Y-13735476D01*
X14271667Y-13725952D01*
X14262143Y-13716428D01*
X14252619Y-13697381D01*
X14243095Y-13659286D01*
X14243095Y-13611667D01*
X14252619Y-13573571D01*
X14262143Y-13554524D01*
X14271667Y-13545000D01*
X14290714Y-13535476D01*
X14443095Y-13716428D02*
X14452619Y-13725952D01*
X14443095Y-13735476D01*
X14433571Y-13725952D01*
X14443095Y-13716428D01*
X14443095Y-13735476D01*
X14566905Y-13621190D02*
X14547857Y-13611667D01*
X14538333Y-13602143D01*
X14528809Y-13583095D01*
X14528809Y-13573571D01*
X14538333Y-13554524D01*
X14547857Y-13545000D01*
X14566905Y-13535476D01*
X14605000Y-13535476D01*
X14624048Y-13545000D01*
X14633571Y-13554524D01*
X14643095Y-13573571D01*
X14643095Y-13583095D01*
X14633571Y-13602143D01*
X14624048Y-13611667D01*
X14605000Y-13621190D01*
X14566905Y-13621190D01*
X14547857Y-13630714D01*
X14538333Y-13640238D01*
X14528809Y-13659286D01*
X14528809Y-13697381D01*
X14538333Y-13716428D01*
X14547857Y-13725952D01*
X14566905Y-13735476D01*
X14605000Y-13735476D01*
X14624048Y-13725952D01*
X14633571Y-13716428D01*
X14643095Y-13697381D01*
X14643095Y-13659286D01*
X14633571Y-13640238D01*
X14624048Y-13630714D01*
X14605000Y-13621190D01*
X14766905Y-13535476D02*
X14785952Y-13535476D01*
X14805000Y-13545000D01*
X14814524Y-13554524D01*
X14824048Y-13573571D01*
X14833571Y-13611667D01*
X14833571Y-13659286D01*
X14824048Y-13697381D01*
X14814524Y-13716428D01*
X14805000Y-13725952D01*
X14785952Y-13735476D01*
X14766905Y-13735476D01*
X14747857Y-13725952D01*
X14738333Y-13716428D01*
X14728809Y-13697381D01*
X14719286Y-13659286D01*
X14719286Y-13611667D01*
X14728809Y-13573571D01*
X14738333Y-13554524D01*
X14747857Y-13545000D01*
X14766905Y-13535476D01*
X14957381Y-13535476D02*
X14976428Y-13535476D01*
X14995476Y-13545000D01*
X15005000Y-13554524D01*
X15014524Y-13573571D01*
X15024048Y-13611667D01*
X15024048Y-13659286D01*
X15014524Y-13697381D01*
X15005000Y-13716428D01*
X14995476Y-13725952D01*
X14976428Y-13735476D01*
X14957381Y-13735476D01*
X14938333Y-13725952D01*
X14928809Y-13716428D01*
X14919286Y-13697381D01*
X14909762Y-13659286D01*
X14909762Y-13611667D01*
X14919286Y-13573571D01*
X14928809Y-13554524D01*
X14938333Y-13545000D01*
X14957381Y-13535476D01*
X15109762Y-13735476D02*
X15109762Y-13602143D01*
X15109762Y-13621190D02*
X15119286Y-13611667D01*
X15138333Y-13602143D01*
X15166905Y-13602143D01*
X15185952Y-13611667D01*
X15195476Y-13630714D01*
X15195476Y-13735476D01*
X15195476Y-13630714D02*
X15205000Y-13611667D01*
X15224048Y-13602143D01*
X15252619Y-13602143D01*
X15271667Y-13611667D01*
X15281190Y-13630714D01*
X15281190Y-13735476D01*
X15376428Y-13735476D02*
X15376428Y-13602143D01*
X15376428Y-13621190D02*
X15385952Y-13611667D01*
X15405000Y-13602143D01*
X15433571Y-13602143D01*
X15452619Y-13611667D01*
X15462143Y-13630714D01*
X15462143Y-13735476D01*
X15462143Y-13630714D02*
X15471667Y-13611667D01*
X15490714Y-13602143D01*
X15519286Y-13602143D01*
X15538333Y-13611667D01*
X15547857Y-13630714D01*
X15547857Y-13735476D01*
X15938333Y-13525952D02*
X15766905Y-13783095D01*
X16195476Y-13535476D02*
X16214524Y-13535476D01*
X16233571Y-13545000D01*
X16243095Y-13554524D01*
X16252619Y-13573571D01*
X16262143Y-13611667D01*
X16262143Y-13659286D01*
X16252619Y-13697381D01*
X16243095Y-13716428D01*
X16233571Y-13725952D01*
X16214524Y-13735476D01*
X16195476Y-13735476D01*
X16176428Y-13725952D01*
X16166905Y-13716428D01*
X16157381Y-13697381D01*
X16147857Y-13659286D01*
X16147857Y-13611667D01*
X16157381Y-13573571D01*
X16166905Y-13554524D01*
X16176428Y-13545000D01*
X16195476Y-13535476D01*
X16347857Y-13716428D02*
X16357381Y-13725952D01*
X16347857Y-13735476D01*
X16338333Y-13725952D01*
X16347857Y-13716428D01*
X16347857Y-13735476D01*
X16481190Y-13535476D02*
X16500238Y-13535476D01*
X16519286Y-13545000D01*
X16528809Y-13554524D01*
X16538333Y-13573571D01*
X16547857Y-13611667D01*
X16547857Y-13659286D01*
X16538333Y-13697381D01*
X16528809Y-13716428D01*
X16519286Y-13725952D01*
X16500238Y-13735476D01*
X16481190Y-13735476D01*
X16462143Y-13725952D01*
X16452619Y-13716428D01*
X16443095Y-13697381D01*
X16433571Y-13659286D01*
X16433571Y-13611667D01*
X16443095Y-13573571D01*
X16452619Y-13554524D01*
X16462143Y-13545000D01*
X16481190Y-13535476D01*
X16614524Y-13535476D02*
X16738333Y-13535476D01*
X16671667Y-13611667D01*
X16700238Y-13611667D01*
X16719286Y-13621190D01*
X16728809Y-13630714D01*
X16738333Y-13649762D01*
X16738333Y-13697381D01*
X16728809Y-13716428D01*
X16719286Y-13725952D01*
X16700238Y-13735476D01*
X16643095Y-13735476D01*
X16624048Y-13725952D01*
X16614524Y-13716428D01*
X16928810Y-13735476D02*
X16814524Y-13735476D01*
X16871667Y-13735476D02*
X16871667Y-13535476D01*
X16852619Y-13564048D01*
X16833571Y-13583095D01*
X16814524Y-13592619D01*
X17109762Y-13535476D02*
X17014524Y-13535476D01*
X17005000Y-13630714D01*
X17014524Y-13621190D01*
X17033571Y-13611667D01*
X17081190Y-13611667D01*
X17100238Y-13621190D01*
X17109762Y-13630714D01*
X17119286Y-13649762D01*
X17119286Y-13697381D01*
X17109762Y-13716428D01*
X17100238Y-13725952D01*
X17081190Y-13735476D01*
X17033571Y-13735476D01*
X17014524Y-13725952D01*
X17005000Y-13716428D01*
X17195476Y-13535476D02*
X17195476Y-13573571D01*
X17271667Y-13535476D02*
X17271667Y-13573571D01*
X17566905Y-13811667D02*
X17557381Y-13802143D01*
X17538333Y-13773571D01*
X17528810Y-13754524D01*
X17519286Y-13725952D01*
X17509762Y-13678333D01*
X17509762Y-13640238D01*
X17519286Y-13592619D01*
X17528810Y-13564048D01*
X17538333Y-13545000D01*
X17557381Y-13516428D01*
X17566905Y-13506905D01*
X17728810Y-13602143D02*
X17728810Y-13735476D01*
X17681190Y-13525952D02*
X17633571Y-13668809D01*
X17757381Y-13668809D01*
X17985952Y-13735476D02*
X17985952Y-13535476D01*
X18071667Y-13735476D02*
X18071667Y-13630714D01*
X18062143Y-13611667D01*
X18043095Y-13602143D01*
X18014524Y-13602143D01*
X17995476Y-13611667D01*
X17985952Y-13621190D01*
X18195476Y-13735476D02*
X18176429Y-13725952D01*
X18166905Y-13716428D01*
X18157381Y-13697381D01*
X18157381Y-13640238D01*
X18166905Y-13621190D01*
X18176429Y-13611667D01*
X18195476Y-13602143D01*
X18224048Y-13602143D01*
X18243095Y-13611667D01*
X18252619Y-13621190D01*
X18262143Y-13640238D01*
X18262143Y-13697381D01*
X18252619Y-13716428D01*
X18243095Y-13725952D01*
X18224048Y-13735476D01*
X18195476Y-13735476D01*
X18376429Y-13735476D02*
X18357381Y-13725952D01*
X18347857Y-13706905D01*
X18347857Y-13535476D01*
X18528810Y-13725952D02*
X18509762Y-13735476D01*
X18471667Y-13735476D01*
X18452619Y-13725952D01*
X18443095Y-13706905D01*
X18443095Y-13630714D01*
X18452619Y-13611667D01*
X18471667Y-13602143D01*
X18509762Y-13602143D01*
X18528810Y-13611667D01*
X18538333Y-13630714D01*
X18538333Y-13649762D01*
X18443095Y-13668809D01*
X18614524Y-13725952D02*
X18633571Y-13735476D01*
X18671667Y-13735476D01*
X18690714Y-13725952D01*
X18700238Y-13706905D01*
X18700238Y-13697381D01*
X18690714Y-13678333D01*
X18671667Y-13668809D01*
X18643095Y-13668809D01*
X18624048Y-13659286D01*
X18614524Y-13640238D01*
X18614524Y-13630714D01*
X18624048Y-13611667D01*
X18643095Y-13602143D01*
X18671667Y-13602143D01*
X18690714Y-13611667D01*
X18766905Y-13811667D02*
X18776429Y-13802143D01*
X18795476Y-13773571D01*
X18805000Y-13754524D01*
X18814524Y-13725952D01*
X18824048Y-13678333D01*
X18824048Y-13640238D01*
X18814524Y-13592619D01*
X18805000Y-13564048D01*
X18795476Y-13545000D01*
X18776429Y-13516428D01*
X18766905Y-13506905D01*
D13*
X13995000Y-13909000D02*
G75*
G03*
X13995000Y-13909000I-45000J0D01*
G01*
D11*
X14290714Y-13799476D02*
X14309762Y-13799476D01*
X14328809Y-13809000D01*
X14338333Y-13818524D01*
X14347857Y-13837571D01*
X14357381Y-13875667D01*
X14357381Y-13923286D01*
X14347857Y-13961381D01*
X14338333Y-13980428D01*
X14328809Y-13989952D01*
X14309762Y-13999476D01*
X14290714Y-13999476D01*
X14271667Y-13989952D01*
X14262143Y-13980428D01*
X14252619Y-13961381D01*
X14243095Y-13923286D01*
X14243095Y-13875667D01*
X14252619Y-13837571D01*
X14262143Y-13818524D01*
X14271667Y-13809000D01*
X14290714Y-13799476D01*
X14443095Y-13980428D02*
X14452619Y-13989952D01*
X14443095Y-13999476D01*
X14433571Y-13989952D01*
X14443095Y-13980428D01*
X14443095Y-13999476D01*
X14547857Y-13999476D02*
X14585952Y-13999476D01*
X14605000Y-13989952D01*
X14614524Y-13980428D01*
X14633571Y-13951857D01*
X14643095Y-13913762D01*
X14643095Y-13837571D01*
X14633571Y-13818524D01*
X14624048Y-13809000D01*
X14605000Y-13799476D01*
X14566905Y-13799476D01*
X14547857Y-13809000D01*
X14538333Y-13818524D01*
X14528809Y-13837571D01*
X14528809Y-13885190D01*
X14538333Y-13904238D01*
X14547857Y-13913762D01*
X14566905Y-13923286D01*
X14605000Y-13923286D01*
X14624048Y-13913762D01*
X14633571Y-13904238D01*
X14643095Y-13885190D01*
X14766905Y-13799476D02*
X14785952Y-13799476D01*
X14805000Y-13809000D01*
X14814524Y-13818524D01*
X14824048Y-13837571D01*
X14833571Y-13875667D01*
X14833571Y-13923286D01*
X14824048Y-13961381D01*
X14814524Y-13980428D01*
X14805000Y-13989952D01*
X14785952Y-13999476D01*
X14766905Y-13999476D01*
X14747857Y-13989952D01*
X14738333Y-13980428D01*
X14728809Y-13961381D01*
X14719286Y-13923286D01*
X14719286Y-13875667D01*
X14728809Y-13837571D01*
X14738333Y-13818524D01*
X14747857Y-13809000D01*
X14766905Y-13799476D01*
X14957381Y-13799476D02*
X14976428Y-13799476D01*
X14995476Y-13809000D01*
X15005000Y-13818524D01*
X15014524Y-13837571D01*
X15024048Y-13875667D01*
X15024048Y-13923286D01*
X15014524Y-13961381D01*
X15005000Y-13980428D01*
X14995476Y-13989952D01*
X14976428Y-13999476D01*
X14957381Y-13999476D01*
X14938333Y-13989952D01*
X14928809Y-13980428D01*
X14919286Y-13961381D01*
X14909762Y-13923286D01*
X14909762Y-13875667D01*
X14919286Y-13837571D01*
X14928809Y-13818524D01*
X14938333Y-13809000D01*
X14957381Y-13799476D01*
X15109762Y-13999476D02*
X15109762Y-13866143D01*
X15109762Y-13885190D02*
X15119286Y-13875667D01*
X15138333Y-13866143D01*
X15166905Y-13866143D01*
X15185952Y-13875667D01*
X15195476Y-13894714D01*
X15195476Y-13999476D01*
X15195476Y-13894714D02*
X15205000Y-13875667D01*
X15224048Y-13866143D01*
X15252619Y-13866143D01*
X15271667Y-13875667D01*
X15281190Y-13894714D01*
X15281190Y-13999476D01*
X15376428Y-13999476D02*
X15376428Y-13866143D01*
X15376428Y-13885190D02*
X15385952Y-13875667D01*
X15405000Y-13866143D01*
X15433571Y-13866143D01*
X15452619Y-13875667D01*
X15462143Y-13894714D01*
X15462143Y-13999476D01*
X15462143Y-13894714D02*
X15471667Y-13875667D01*
X15490714Y-13866143D01*
X15519286Y-13866143D01*
X15538333Y-13875667D01*
X15547857Y-13894714D01*
X15547857Y-13999476D01*
X15938333Y-13789952D02*
X15766905Y-14047095D01*
X16195476Y-13799476D02*
X16214524Y-13799476D01*
X16233571Y-13809000D01*
X16243095Y-13818524D01*
X16252619Y-13837571D01*
X16262143Y-13875667D01*
X16262143Y-13923286D01*
X16252619Y-13961381D01*
X16243095Y-13980428D01*
X16233571Y-13989952D01*
X16214524Y-13999476D01*
X16195476Y-13999476D01*
X16176428Y-13989952D01*
X16166905Y-13980428D01*
X16157381Y-13961381D01*
X16147857Y-13923286D01*
X16147857Y-13875667D01*
X16157381Y-13837571D01*
X16166905Y-13818524D01*
X16176428Y-13809000D01*
X16195476Y-13799476D01*
X16347857Y-13980428D02*
X16357381Y-13989952D01*
X16347857Y-13999476D01*
X16338333Y-13989952D01*
X16347857Y-13980428D01*
X16347857Y-13999476D01*
X16481190Y-13799476D02*
X16500238Y-13799476D01*
X16519286Y-13809000D01*
X16528809Y-13818524D01*
X16538333Y-13837571D01*
X16547857Y-13875667D01*
X16547857Y-13923286D01*
X16538333Y-13961381D01*
X16528809Y-13980428D01*
X16519286Y-13989952D01*
X16500238Y-13999476D01*
X16481190Y-13999476D01*
X16462143Y-13989952D01*
X16452619Y-13980428D01*
X16443095Y-13961381D01*
X16433571Y-13923286D01*
X16433571Y-13875667D01*
X16443095Y-13837571D01*
X16452619Y-13818524D01*
X16462143Y-13809000D01*
X16481190Y-13799476D01*
X16614524Y-13799476D02*
X16738333Y-13799476D01*
X16671667Y-13875667D01*
X16700238Y-13875667D01*
X16719286Y-13885190D01*
X16728809Y-13894714D01*
X16738333Y-13913762D01*
X16738333Y-13961381D01*
X16728809Y-13980428D01*
X16719286Y-13989952D01*
X16700238Y-13999476D01*
X16643095Y-13999476D01*
X16624048Y-13989952D01*
X16614524Y-13980428D01*
X16919286Y-13799476D02*
X16824048Y-13799476D01*
X16814524Y-13894714D01*
X16824048Y-13885190D01*
X16843095Y-13875667D01*
X16890714Y-13875667D01*
X16909762Y-13885190D01*
X16919286Y-13894714D01*
X16928810Y-13913762D01*
X16928810Y-13961381D01*
X16919286Y-13980428D01*
X16909762Y-13989952D01*
X16890714Y-13999476D01*
X16843095Y-13999476D01*
X16824048Y-13989952D01*
X16814524Y-13980428D01*
X17100238Y-13866143D02*
X17100238Y-13999476D01*
X17052619Y-13789952D02*
X17005000Y-13932809D01*
X17128810Y-13932809D01*
X17195476Y-13799476D02*
X17195476Y-13837571D01*
X17271667Y-13799476D02*
X17271667Y-13837571D01*
X17566905Y-14075667D02*
X17557381Y-14066143D01*
X17538333Y-14037571D01*
X17528810Y-14018524D01*
X17519286Y-13989952D01*
X17509762Y-13942333D01*
X17509762Y-13904238D01*
X17519286Y-13856619D01*
X17528810Y-13828048D01*
X17538333Y-13809000D01*
X17557381Y-13780428D01*
X17566905Y-13770905D01*
X17633571Y-13818524D02*
X17643095Y-13809000D01*
X17662143Y-13799476D01*
X17709762Y-13799476D01*
X17728810Y-13809000D01*
X17738333Y-13818524D01*
X17747857Y-13837571D01*
X17747857Y-13856619D01*
X17738333Y-13885190D01*
X17624048Y-13999476D01*
X17747857Y-13999476D01*
X17985952Y-13999476D02*
X17985952Y-13799476D01*
X18071667Y-13999476D02*
X18071667Y-13894714D01*
X18062143Y-13875667D01*
X18043095Y-13866143D01*
X18014524Y-13866143D01*
X17995476Y-13875667D01*
X17985952Y-13885190D01*
X18195476Y-13999476D02*
X18176429Y-13989952D01*
X18166905Y-13980428D01*
X18157381Y-13961381D01*
X18157381Y-13904238D01*
X18166905Y-13885190D01*
X18176429Y-13875667D01*
X18195476Y-13866143D01*
X18224048Y-13866143D01*
X18243095Y-13875667D01*
X18252619Y-13885190D01*
X18262143Y-13904238D01*
X18262143Y-13961381D01*
X18252619Y-13980428D01*
X18243095Y-13989952D01*
X18224048Y-13999476D01*
X18195476Y-13999476D01*
X18376429Y-13999476D02*
X18357381Y-13989952D01*
X18347857Y-13970905D01*
X18347857Y-13799476D01*
X18528810Y-13989952D02*
X18509762Y-13999476D01*
X18471667Y-13999476D01*
X18452619Y-13989952D01*
X18443095Y-13970905D01*
X18443095Y-13894714D01*
X18452619Y-13875667D01*
X18471667Y-13866143D01*
X18509762Y-13866143D01*
X18528810Y-13875667D01*
X18538333Y-13894714D01*
X18538333Y-13913762D01*
X18443095Y-13932809D01*
X18614524Y-13989952D02*
X18633571Y-13999476D01*
X18671667Y-13999476D01*
X18690714Y-13989952D01*
X18700238Y-13970905D01*
X18700238Y-13961381D01*
X18690714Y-13942333D01*
X18671667Y-13932809D01*
X18643095Y-13932809D01*
X18624048Y-13923286D01*
X18614524Y-13904238D01*
X18614524Y-13894714D01*
X18624048Y-13875667D01*
X18643095Y-13866143D01*
X18671667Y-13866143D01*
X18690714Y-13875667D01*
X18766905Y-14075667D02*
X18776429Y-14066143D01*
X18795476Y-14037571D01*
X18805000Y-14018524D01*
X18814524Y-13989952D01*
X18824048Y-13942333D01*
X18824048Y-13904238D01*
X18814524Y-13856619D01*
X18805000Y-13828048D01*
X18795476Y-13809000D01*
X18776429Y-13780428D01*
X18766905Y-13770905D01*
D14*
X13940000Y-14118000D02*
X13940000Y-14228000D01*
X13885000Y-14173000D02*
X13995000Y-14173000D01*
D11*
X14357381Y-14263476D02*
X14243095Y-14263476D01*
X14300238Y-14263476D02*
X14300238Y-14063476D01*
X14281190Y-14092048D01*
X14262143Y-14111095D01*
X14243095Y-14120619D01*
X14443095Y-14244428D02*
X14452619Y-14253952D01*
X14443095Y-14263476D01*
X14433571Y-14253952D01*
X14443095Y-14244428D01*
X14443095Y-14263476D01*
X14643095Y-14263476D02*
X14528809Y-14263476D01*
X14585952Y-14263476D02*
X14585952Y-14063476D01*
X14566905Y-14092048D01*
X14547857Y-14111095D01*
X14528809Y-14120619D01*
X14766905Y-14063476D02*
X14785952Y-14063476D01*
X14805000Y-14073000D01*
X14814524Y-14082524D01*
X14824048Y-14101571D01*
X14833571Y-14139667D01*
X14833571Y-14187286D01*
X14824048Y-14225381D01*
X14814524Y-14244428D01*
X14805000Y-14253952D01*
X14785952Y-14263476D01*
X14766905Y-14263476D01*
X14747857Y-14253952D01*
X14738333Y-14244428D01*
X14728809Y-14225381D01*
X14719286Y-14187286D01*
X14719286Y-14139667D01*
X14728809Y-14101571D01*
X14738333Y-14082524D01*
X14747857Y-14073000D01*
X14766905Y-14063476D01*
X14957381Y-14063476D02*
X14976428Y-14063476D01*
X14995476Y-14073000D01*
X15005000Y-14082524D01*
X15014524Y-14101571D01*
X15024048Y-14139667D01*
X15024048Y-14187286D01*
X15014524Y-14225381D01*
X15005000Y-14244428D01*
X14995476Y-14253952D01*
X14976428Y-14263476D01*
X14957381Y-14263476D01*
X14938333Y-14253952D01*
X14928809Y-14244428D01*
X14919286Y-14225381D01*
X14909762Y-14187286D01*
X14909762Y-14139667D01*
X14919286Y-14101571D01*
X14928809Y-14082524D01*
X14938333Y-14073000D01*
X14957381Y-14063476D01*
X15109762Y-14263476D02*
X15109762Y-14130143D01*
X15109762Y-14149190D02*
X15119286Y-14139667D01*
X15138333Y-14130143D01*
X15166905Y-14130143D01*
X15185952Y-14139667D01*
X15195476Y-14158714D01*
X15195476Y-14263476D01*
X15195476Y-14158714D02*
X15205000Y-14139667D01*
X15224048Y-14130143D01*
X15252619Y-14130143D01*
X15271667Y-14139667D01*
X15281190Y-14158714D01*
X15281190Y-14263476D01*
X15376428Y-14263476D02*
X15376428Y-14130143D01*
X15376428Y-14149190D02*
X15385952Y-14139667D01*
X15405000Y-14130143D01*
X15433571Y-14130143D01*
X15452619Y-14139667D01*
X15462143Y-14158714D01*
X15462143Y-14263476D01*
X15462143Y-14158714D02*
X15471667Y-14139667D01*
X15490714Y-14130143D01*
X15519286Y-14130143D01*
X15538333Y-14139667D01*
X15547857Y-14158714D01*
X15547857Y-14263476D01*
X15938333Y-14053952D02*
X15766905Y-14311095D01*
X16195476Y-14063476D02*
X16214524Y-14063476D01*
X16233571Y-14073000D01*
X16243095Y-14082524D01*
X16252619Y-14101571D01*
X16262143Y-14139667D01*
X16262143Y-14187286D01*
X16252619Y-14225381D01*
X16243095Y-14244428D01*
X16233571Y-14253952D01*
X16214524Y-14263476D01*
X16195476Y-14263476D01*
X16176428Y-14253952D01*
X16166905Y-14244428D01*
X16157381Y-14225381D01*
X16147857Y-14187286D01*
X16147857Y-14139667D01*
X16157381Y-14101571D01*
X16166905Y-14082524D01*
X16176428Y-14073000D01*
X16195476Y-14063476D01*
X16347857Y-14244428D02*
X16357381Y-14253952D01*
X16347857Y-14263476D01*
X16338333Y-14253952D01*
X16347857Y-14244428D01*
X16347857Y-14263476D01*
X16481190Y-14063476D02*
X16500238Y-14063476D01*
X16519286Y-14073000D01*
X16528809Y-14082524D01*
X16538333Y-14101571D01*
X16547857Y-14139667D01*
X16547857Y-14187286D01*
X16538333Y-14225381D01*
X16528809Y-14244428D01*
X16519286Y-14253952D01*
X16500238Y-14263476D01*
X16481190Y-14263476D01*
X16462143Y-14253952D01*
X16452619Y-14244428D01*
X16443095Y-14225381D01*
X16433571Y-14187286D01*
X16433571Y-14139667D01*
X16443095Y-14101571D01*
X16452619Y-14082524D01*
X16462143Y-14073000D01*
X16481190Y-14063476D01*
X16719286Y-14130143D02*
X16719286Y-14263476D01*
X16671667Y-14053952D02*
X16624048Y-14196809D01*
X16747857Y-14196809D01*
X16805000Y-14063476D02*
X16928810Y-14063476D01*
X16862143Y-14139667D01*
X16890714Y-14139667D01*
X16909762Y-14149190D01*
X16919286Y-14158714D01*
X16928810Y-14177762D01*
X16928810Y-14225381D01*
X16919286Y-14244428D01*
X16909762Y-14253952D01*
X16890714Y-14263476D01*
X16833571Y-14263476D01*
X16814524Y-14253952D01*
X16805000Y-14244428D01*
X16995476Y-14063476D02*
X17119286Y-14063476D01*
X17052619Y-14139667D01*
X17081190Y-14139667D01*
X17100238Y-14149190D01*
X17109762Y-14158714D01*
X17119286Y-14177762D01*
X17119286Y-14225381D01*
X17109762Y-14244428D01*
X17100238Y-14253952D01*
X17081190Y-14263476D01*
X17024048Y-14263476D01*
X17005000Y-14253952D01*
X16995476Y-14244428D01*
X17195476Y-14063476D02*
X17195476Y-14101571D01*
X17271667Y-14063476D02*
X17271667Y-14101571D01*
X17566905Y-14339667D02*
X17557381Y-14330143D01*
X17538333Y-14301571D01*
X17528810Y-14282524D01*
X17519286Y-14253952D01*
X17509762Y-14206333D01*
X17509762Y-14168238D01*
X17519286Y-14120619D01*
X17528810Y-14092048D01*
X17538333Y-14073000D01*
X17557381Y-14044428D01*
X17566905Y-14034905D01*
X17728810Y-14130143D02*
X17728810Y-14263476D01*
X17681190Y-14053952D02*
X17633571Y-14196809D01*
X17757381Y-14196809D01*
X17985952Y-14263476D02*
X17985952Y-14063476D01*
X18071667Y-14263476D02*
X18071667Y-14158714D01*
X18062143Y-14139667D01*
X18043095Y-14130143D01*
X18014524Y-14130143D01*
X17995476Y-14139667D01*
X17985952Y-14149190D01*
X18195476Y-14263476D02*
X18176429Y-14253952D01*
X18166905Y-14244428D01*
X18157381Y-14225381D01*
X18157381Y-14168238D01*
X18166905Y-14149190D01*
X18176429Y-14139667D01*
X18195476Y-14130143D01*
X18224048Y-14130143D01*
X18243095Y-14139667D01*
X18252619Y-14149190D01*
X18262143Y-14168238D01*
X18262143Y-14225381D01*
X18252619Y-14244428D01*
X18243095Y-14253952D01*
X18224048Y-14263476D01*
X18195476Y-14263476D01*
X18376429Y-14263476D02*
X18357381Y-14253952D01*
X18347857Y-14234905D01*
X18347857Y-14063476D01*
X18528810Y-14253952D02*
X18509762Y-14263476D01*
X18471667Y-14263476D01*
X18452619Y-14253952D01*
X18443095Y-14234905D01*
X18443095Y-14158714D01*
X18452619Y-14139667D01*
X18471667Y-14130143D01*
X18509762Y-14130143D01*
X18528810Y-14139667D01*
X18538333Y-14158714D01*
X18538333Y-14177762D01*
X18443095Y-14196809D01*
X18614524Y-14253952D02*
X18633571Y-14263476D01*
X18671667Y-14263476D01*
X18690714Y-14253952D01*
X18700238Y-14234905D01*
X18700238Y-14225381D01*
X18690714Y-14206333D01*
X18671667Y-14196809D01*
X18643095Y-14196809D01*
X18624048Y-14187286D01*
X18614524Y-14168238D01*
X18614524Y-14158714D01*
X18624048Y-14139667D01*
X18643095Y-14130143D01*
X18671667Y-14130143D01*
X18690714Y-14139667D01*
X18766905Y-14339667D02*
X18776429Y-14330143D01*
X18795476Y-14301571D01*
X18805000Y-14282524D01*
X18814524Y-14253952D01*
X18824048Y-14206333D01*
X18824048Y-14168238D01*
X18814524Y-14120619D01*
X18805000Y-14092048D01*
X18795476Y-14073000D01*
X18776429Y-14044428D01*
X18766905Y-14034905D01*
M02*
