G04 #@! TF.GenerationSoftware,KiCad,Pcbnew,(6.0.9-0)*
G04 #@! TF.CreationDate,2022-12-03T16:28:07+09:00*
G04 #@! TF.ProjectId,LEDchika,4c454463-6869-46b6-912e-6b696361645f,rev?*
G04 #@! TF.SameCoordinates,Original*
G04 #@! TF.FileFunction,Legend,Top*
G04 #@! TF.FilePolarity,Positive*
%FSLAX46Y46*%
G04 Gerber Fmt 4.6, Leading zero omitted, Abs format (unit mm)*
G04 Created by KiCad (PCBNEW (6.0.9-0)) date 2022-12-03 16:28:07*
%MOMM*%
%LPD*%
G01*
G04 APERTURE LIST*
%ADD10C,0.150000*%
%ADD11C,0.120000*%
%ADD12C,1.600000*%
%ADD13O,1.600000X1.600000*%
%ADD14R,1.800000X1.800000*%
%ADD15C,1.800000*%
%ADD16C,2.000000*%
G04 APERTURE END LIST*
D10*
X141952380Y-120285714D02*
X141952380Y-119666666D01*
X142333333Y-120000000D01*
X142333333Y-119857142D01*
X142380952Y-119761904D01*
X142428571Y-119714285D01*
X142523809Y-119666666D01*
X142761904Y-119666666D01*
X142857142Y-119714285D01*
X142904761Y-119761904D01*
X142952380Y-119857142D01*
X142952380Y-120142857D01*
X142904761Y-120238095D01*
X142857142Y-120285714D01*
X141952380Y-119333333D02*
X141952380Y-118714285D01*
X142333333Y-119047619D01*
X142333333Y-118904761D01*
X142380952Y-118809523D01*
X142428571Y-118761904D01*
X142523809Y-118714285D01*
X142761904Y-118714285D01*
X142857142Y-118761904D01*
X142904761Y-118809523D01*
X142952380Y-118904761D01*
X142952380Y-119190476D01*
X142904761Y-119285714D01*
X142857142Y-119333333D01*
X141952380Y-118095238D02*
X141952380Y-118000000D01*
X142000000Y-117904761D01*
X142047619Y-117857142D01*
X142142857Y-117809523D01*
X142333333Y-117761904D01*
X142571428Y-117761904D01*
X142761904Y-117809523D01*
X142857142Y-117857142D01*
X142904761Y-117904761D01*
X142952380Y-118000000D01*
X142952380Y-118095238D01*
X142904761Y-118190476D01*
X142857142Y-118238095D01*
X142761904Y-118285714D01*
X142571428Y-118333333D01*
X142333333Y-118333333D01*
X142142857Y-118285714D01*
X142047619Y-118238095D01*
X142000000Y-118190476D01*
X141952380Y-118095238D01*
X152452380Y-117142857D02*
X152452380Y-117047619D01*
X152500000Y-116952380D01*
X152547619Y-116904761D01*
X152642857Y-116857142D01*
X152833333Y-116809523D01*
X153071428Y-116809523D01*
X153261904Y-116857142D01*
X153357142Y-116904761D01*
X153404761Y-116952380D01*
X153452380Y-117047619D01*
X153452380Y-117142857D01*
X153404761Y-117238095D01*
X153357142Y-117285714D01*
X153261904Y-117333333D01*
X153071428Y-117380952D01*
X152833333Y-117380952D01*
X152642857Y-117333333D01*
X152547619Y-117285714D01*
X152500000Y-117238095D01*
X152452380Y-117142857D01*
X153357142Y-116380952D02*
X153404761Y-116333333D01*
X153452380Y-116380952D01*
X153404761Y-116428571D01*
X153357142Y-116380952D01*
X153452380Y-116380952D01*
X153452380Y-115380952D02*
X153452380Y-115952380D01*
X153452380Y-115666666D02*
X152452380Y-115666666D01*
X152595238Y-115761904D01*
X152690476Y-115857142D01*
X152738095Y-115952380D01*
X152785714Y-114523809D02*
X153452380Y-114523809D01*
X152785714Y-114952380D02*
X153309523Y-114952380D01*
X153404761Y-114904761D01*
X153452380Y-114809523D01*
X153452380Y-114666666D01*
X153404761Y-114571428D01*
X153357142Y-114523809D01*
X152928571Y-113714285D02*
X152928571Y-114047619D01*
X153452380Y-114047619D02*
X152452380Y-114047619D01*
X152452380Y-113571428D01*
X140476190Y-126742619D02*
X140523809Y-126695000D01*
X140619047Y-126647380D01*
X140857142Y-126647380D01*
X140952380Y-126695000D01*
X141000000Y-126742619D01*
X141047619Y-126837857D01*
X141047619Y-126933095D01*
X141000000Y-127075952D01*
X140428571Y-127647380D01*
X141047619Y-127647380D01*
X141666666Y-126647380D02*
X141761904Y-126647380D01*
X141857142Y-126695000D01*
X141904761Y-126742619D01*
X141952380Y-126837857D01*
X142000000Y-127028333D01*
X142000000Y-127266428D01*
X141952380Y-127456904D01*
X141904761Y-127552142D01*
X141857142Y-127599761D01*
X141761904Y-127647380D01*
X141666666Y-127647380D01*
X141571428Y-127599761D01*
X141523809Y-127552142D01*
X141476190Y-127456904D01*
X141428571Y-127266428D01*
X141428571Y-127028333D01*
X141476190Y-126837857D01*
X141523809Y-126742619D01*
X141571428Y-126695000D01*
X141666666Y-126647380D01*
X142380952Y-126742619D02*
X142428571Y-126695000D01*
X142523809Y-126647380D01*
X142761904Y-126647380D01*
X142857142Y-126695000D01*
X142904761Y-126742619D01*
X142952380Y-126837857D01*
X142952380Y-126933095D01*
X142904761Y-127075952D01*
X142333333Y-127647380D01*
X142952380Y-127647380D01*
X143333333Y-126742619D02*
X143380952Y-126695000D01*
X143476190Y-126647380D01*
X143714285Y-126647380D01*
X143809523Y-126695000D01*
X143857142Y-126742619D01*
X143904761Y-126837857D01*
X143904761Y-126933095D01*
X143857142Y-127075952D01*
X143285714Y-127647380D01*
X143904761Y-127647380D01*
X144333333Y-127647380D02*
X144333333Y-126647380D01*
X144571428Y-126647380D01*
X144714285Y-126695000D01*
X144809523Y-126790238D01*
X144857142Y-126885476D01*
X144904761Y-127075952D01*
X144904761Y-127218809D01*
X144857142Y-127409285D01*
X144809523Y-127504523D01*
X144714285Y-127599761D01*
X144571428Y-127647380D01*
X144333333Y-127647380D01*
X145714285Y-127599761D02*
X145619047Y-127647380D01*
X145428571Y-127647380D01*
X145333333Y-127599761D01*
X145285714Y-127504523D01*
X145285714Y-127123571D01*
X145333333Y-127028333D01*
X145428571Y-126980714D01*
X145619047Y-126980714D01*
X145714285Y-127028333D01*
X145761904Y-127123571D01*
X145761904Y-127218809D01*
X145285714Y-127314047D01*
X146619047Y-127599761D02*
X146523809Y-127647380D01*
X146333333Y-127647380D01*
X146238095Y-127599761D01*
X146190476Y-127552142D01*
X146142857Y-127456904D01*
X146142857Y-127171190D01*
X146190476Y-127075952D01*
X146238095Y-127028333D01*
X146333333Y-126980714D01*
X146523809Y-126980714D01*
X146619047Y-127028333D01*
X147238095Y-126647380D02*
X147333333Y-126647380D01*
X147428571Y-126695000D01*
X147476190Y-126742619D01*
X147523809Y-126837857D01*
X147571428Y-127028333D01*
X147571428Y-127266428D01*
X147523809Y-127456904D01*
X147476190Y-127552142D01*
X147428571Y-127599761D01*
X147333333Y-127647380D01*
X147238095Y-127647380D01*
X147142857Y-127599761D01*
X147095238Y-127552142D01*
X147047619Y-127456904D01*
X147000000Y-127266428D01*
X147000000Y-127028333D01*
X147047619Y-126837857D01*
X147095238Y-126742619D01*
X147142857Y-126695000D01*
X147238095Y-126647380D01*
X147904761Y-126647380D02*
X148523809Y-126647380D01*
X148190476Y-127028333D01*
X148333333Y-127028333D01*
X148428571Y-127075952D01*
X148476190Y-127123571D01*
X148523809Y-127218809D01*
X148523809Y-127456904D01*
X148476190Y-127552142D01*
X148428571Y-127599761D01*
X148333333Y-127647380D01*
X148047619Y-127647380D01*
X147952380Y-127599761D01*
X147904761Y-127552142D01*
X142857142Y-128781190D02*
X142857142Y-129257380D01*
X142523809Y-128257380D02*
X142857142Y-128781190D01*
X143190476Y-128257380D01*
X143666666Y-129257380D02*
X143571428Y-129209761D01*
X143523809Y-129162142D01*
X143476190Y-129066904D01*
X143476190Y-128781190D01*
X143523809Y-128685952D01*
X143571428Y-128638333D01*
X143666666Y-128590714D01*
X143809523Y-128590714D01*
X143904761Y-128638333D01*
X143952380Y-128685952D01*
X144000000Y-128781190D01*
X144000000Y-129066904D01*
X143952380Y-129162142D01*
X143904761Y-129209761D01*
X143809523Y-129257380D01*
X143666666Y-129257380D01*
X144380952Y-129209761D02*
X144476190Y-129257380D01*
X144666666Y-129257380D01*
X144761904Y-129209761D01*
X144809523Y-129114523D01*
X144809523Y-129066904D01*
X144761904Y-128971666D01*
X144666666Y-128924047D01*
X144523809Y-128924047D01*
X144428571Y-128876428D01*
X144380952Y-128781190D01*
X144380952Y-128733571D01*
X144428571Y-128638333D01*
X144523809Y-128590714D01*
X144666666Y-128590714D01*
X144761904Y-128638333D01*
X145190476Y-129209761D02*
X145285714Y-129257380D01*
X145476190Y-129257380D01*
X145571428Y-129209761D01*
X145619047Y-129114523D01*
X145619047Y-129066904D01*
X145571428Y-128971666D01*
X145476190Y-128924047D01*
X145333333Y-128924047D01*
X145238095Y-128876428D01*
X145190476Y-128781190D01*
X145190476Y-128733571D01*
X145238095Y-128638333D01*
X145333333Y-128590714D01*
X145476190Y-128590714D01*
X145571428Y-128638333D01*
X145952380Y-128590714D02*
X146190476Y-129257380D01*
X146428571Y-128590714D02*
X146190476Y-129257380D01*
X146095238Y-129495476D01*
X146047619Y-129543095D01*
X145952380Y-129590714D01*
X157357142Y-115666666D02*
X157404761Y-115714285D01*
X157452380Y-115857142D01*
X157452380Y-115952380D01*
X157404761Y-116095238D01*
X157309523Y-116190476D01*
X157214285Y-116238095D01*
X157023809Y-116285714D01*
X156880952Y-116285714D01*
X156690476Y-116238095D01*
X156595238Y-116190476D01*
X156500000Y-116095238D01*
X156452380Y-115952380D01*
X156452380Y-115857142D01*
X156500000Y-115714285D01*
X156547619Y-115666666D01*
X157452380Y-114714285D02*
X157452380Y-115285714D01*
X157452380Y-115000000D02*
X156452380Y-115000000D01*
X156595238Y-115095238D01*
X156690476Y-115190476D01*
X156738095Y-115285714D01*
X145322380Y-119246666D02*
X144846190Y-119580000D01*
X145322380Y-119818095D02*
X144322380Y-119818095D01*
X144322380Y-119437142D01*
X144370000Y-119341904D01*
X144417619Y-119294285D01*
X144512857Y-119246666D01*
X144655714Y-119246666D01*
X144750952Y-119294285D01*
X144798571Y-119341904D01*
X144846190Y-119437142D01*
X144846190Y-119818095D01*
X145322380Y-118294285D02*
X145322380Y-118865714D01*
X145322380Y-118580000D02*
X144322380Y-118580000D01*
X144465238Y-118675238D01*
X144560476Y-118770476D01*
X144608095Y-118865714D01*
X144761904Y-112452380D02*
X144761904Y-111452380D01*
X145000000Y-111452380D01*
X145142857Y-111500000D01*
X145238095Y-111595238D01*
X145285714Y-111690476D01*
X145333333Y-111880952D01*
X145333333Y-112023809D01*
X145285714Y-112214285D01*
X145238095Y-112309523D01*
X145142857Y-112404761D01*
X145000000Y-112452380D01*
X144761904Y-112452380D01*
X146285714Y-112452380D02*
X145714285Y-112452380D01*
X146000000Y-112452380D02*
X146000000Y-111452380D01*
X145904761Y-111595238D01*
X145809523Y-111690476D01*
X145714285Y-111738095D01*
X149166666Y-129404761D02*
X149309523Y-129452380D01*
X149547619Y-129452380D01*
X149642857Y-129404761D01*
X149690476Y-129357142D01*
X149738095Y-129261904D01*
X149738095Y-129166666D01*
X149690476Y-129071428D01*
X149642857Y-129023809D01*
X149547619Y-128976190D01*
X149357142Y-128928571D01*
X149261904Y-128880952D01*
X149214285Y-128833333D01*
X149166666Y-128738095D01*
X149166666Y-128642857D01*
X149214285Y-128547619D01*
X149261904Y-128500000D01*
X149357142Y-128452380D01*
X149595238Y-128452380D01*
X149738095Y-128500000D01*
X150071428Y-128452380D02*
X150309523Y-129452380D01*
X150500000Y-128738095D01*
X150690476Y-129452380D01*
X150928571Y-128452380D01*
X151833333Y-129452380D02*
X151261904Y-129452380D01*
X151547619Y-129452380D02*
X151547619Y-128452380D01*
X151452380Y-128595238D01*
X151357142Y-128690476D01*
X151261904Y-128738095D01*
D11*
X153630000Y-118370000D02*
X153630000Y-113130000D01*
X156370000Y-118370000D02*
X156370000Y-113130000D01*
X153630000Y-113130000D02*
X156370000Y-113130000D01*
X153630000Y-118370000D02*
X156370000Y-118370000D01*
X143870000Y-122350000D02*
X143870000Y-115810000D01*
X143870000Y-115810000D02*
X141130000Y-115810000D01*
X142500000Y-115040000D02*
X142500000Y-115810000D01*
X141130000Y-122350000D02*
X143870000Y-122350000D01*
X142500000Y-123120000D02*
X142500000Y-122350000D01*
X141130000Y-115810000D02*
X141130000Y-122350000D01*
X151290000Y-116545000D02*
X151290000Y-113455000D01*
X145740000Y-114999538D02*
G75*
G03*
X151290000Y-116544830I2990000J-462D01*
G01*
X151290000Y-113455170D02*
G75*
G03*
X145740000Y-115000462I-2560000J-1544830D01*
G01*
X151230000Y-115000000D02*
G75*
G03*
X151230000Y-115000000I-2500000J0D01*
G01*
X157000000Y-124750000D02*
X157000000Y-123250000D01*
X151250000Y-127250000D02*
X155750000Y-127250000D01*
X150000000Y-123250000D02*
X150000000Y-124750000D01*
X155750000Y-120750000D02*
X151250000Y-120750000D01*
%LPC*%
D12*
X155000000Y-117000000D03*
X155000000Y-114500000D03*
X142500000Y-114000000D03*
D13*
X142500000Y-124160000D03*
D14*
X150000000Y-115000000D03*
D15*
X147460000Y-115000000D03*
D16*
X156750000Y-126250000D03*
X150250000Y-126250000D03*
X150250000Y-121750000D03*
X156750000Y-121750000D03*
M02*
