%TF.GenerationSoftware,KiCad,Pcbnew,(6.0.9-0)*%
%TF.CreationDate,2022-12-03T16:28:11+09:00*%
%TF.ProjectId,LEDchika,4c454463-6869-46b6-912e-6b696361645f,rev?*%
%TF.SameCoordinates,Original*%
%TF.FileFunction,Drillmap*%
%TF.FilePolarity,Positive*%
%FSLAX45Y45*%
G04 Gerber Fmt 4.5, Leading zero omitted, Abs format (unit mm)*
G04 Created by KiCad (PCBNEW (6.0.9-0)) date 2022-12-03 16:28:11*
%MOMM*%
%LPD*%
G01*
G04 APERTURE LIST*
%ADD10C,0.100000*%
%ADD11C,0.200000*%
G04 APERTURE END LIST*
D10*
X16000000Y-13000000D02*
X14000000Y-13000000D01*
X14000000Y-11000000D01*
X16000000Y-11000000D01*
X16000000Y-13000000D01*
D11*
X14252619Y-13315476D02*
X14252619Y-13115476D01*
X14300238Y-13115476D01*
X14328809Y-13125000D01*
X14347857Y-13144048D01*
X14357381Y-13163095D01*
X14366905Y-13201190D01*
X14366905Y-13229762D01*
X14357381Y-13267857D01*
X14347857Y-13286905D01*
X14328809Y-13305952D01*
X14300238Y-13315476D01*
X14252619Y-13315476D01*
X14452619Y-13315476D02*
X14452619Y-13182143D01*
X14452619Y-13220238D02*
X14462143Y-13201190D01*
X14471667Y-13191667D01*
X14490714Y-13182143D01*
X14509762Y-13182143D01*
X14576428Y-13315476D02*
X14576428Y-13182143D01*
X14576428Y-13115476D02*
X14566905Y-13125000D01*
X14576428Y-13134524D01*
X14585952Y-13125000D01*
X14576428Y-13115476D01*
X14576428Y-13134524D01*
X14700238Y-13315476D02*
X14681190Y-13305952D01*
X14671667Y-13286905D01*
X14671667Y-13115476D01*
X14805000Y-13315476D02*
X14785952Y-13305952D01*
X14776428Y-13286905D01*
X14776428Y-13115476D01*
X15033571Y-13315476D02*
X15033571Y-13115476D01*
X15100238Y-13258333D01*
X15166905Y-13115476D01*
X15166905Y-13315476D01*
X15347857Y-13315476D02*
X15347857Y-13210714D01*
X15338333Y-13191667D01*
X15319286Y-13182143D01*
X15281190Y-13182143D01*
X15262143Y-13191667D01*
X15347857Y-13305952D02*
X15328809Y-13315476D01*
X15281190Y-13315476D01*
X15262143Y-13305952D01*
X15252619Y-13286905D01*
X15252619Y-13267857D01*
X15262143Y-13248809D01*
X15281190Y-13239286D01*
X15328809Y-13239286D01*
X15347857Y-13229762D01*
X15443095Y-13182143D02*
X15443095Y-13382143D01*
X15443095Y-13191667D02*
X15462143Y-13182143D01*
X15500238Y-13182143D01*
X15519286Y-13191667D01*
X15528809Y-13201190D01*
X15538333Y-13220238D01*
X15538333Y-13277381D01*
X15528809Y-13296428D01*
X15519286Y-13305952D01*
X15500238Y-13315476D01*
X15462143Y-13315476D01*
X15443095Y-13305952D01*
X15624048Y-13296428D02*
X15633571Y-13305952D01*
X15624048Y-13315476D01*
X15614524Y-13305952D01*
X15624048Y-13296428D01*
X15624048Y-13315476D01*
X15624048Y-13191667D02*
X15633571Y-13201190D01*
X15624048Y-13210714D01*
X15614524Y-13201190D01*
X15624048Y-13191667D01*
X15624048Y-13210714D01*
M02*
