G04 #@! TF.GenerationSoftware,KiCad,Pcbnew,(6.0.9-0)*
G04 #@! TF.CreationDate,2022-12-03T16:28:07+09:00*
G04 #@! TF.ProjectId,LEDchika,4c454463-6869-46b6-912e-6b696361645f,rev?*
G04 #@! TF.SameCoordinates,Original*
G04 #@! TF.FileFunction,Legend,Bot*
G04 #@! TF.FilePolarity,Positive*
%FSLAX46Y46*%
G04 Gerber Fmt 4.6, Leading zero omitted, Abs format (unit mm)*
G04 Created by KiCad (PCBNEW (6.0.9-0)) date 2022-12-03 16:28:07*
%MOMM*%
%LPD*%
G01*
G04 APERTURE LIST*
%ADD10C,0.150000*%
%ADD11C,1.600000*%
%ADD12O,1.600000X1.600000*%
%ADD13R,1.800000X1.800000*%
%ADD14C,1.800000*%
%ADD15C,2.000000*%
%ADD16O,3.000000X1.500000*%
G04 APERTURE END LIST*
D10*
X158190476Y-118452380D02*
X158666666Y-118452380D01*
X158714285Y-118928571D01*
X158666666Y-118880952D01*
X158571428Y-118833333D01*
X158333333Y-118833333D01*
X158238095Y-118880952D01*
X158190476Y-118928571D01*
X158142857Y-119023809D01*
X158142857Y-119261904D01*
X158190476Y-119357142D01*
X158238095Y-119404761D01*
X158333333Y-119452380D01*
X158571428Y-119452380D01*
X158666666Y-119404761D01*
X158714285Y-119357142D01*
X157857142Y-118452380D02*
X157523809Y-119452380D01*
X157190476Y-118452380D01*
X158761904Y-112000000D02*
X158857142Y-111952380D01*
X159000000Y-111952380D01*
X159142857Y-112000000D01*
X159238095Y-112095238D01*
X159285714Y-112190476D01*
X159333333Y-112380952D01*
X159333333Y-112523809D01*
X159285714Y-112714285D01*
X159238095Y-112809523D01*
X159142857Y-112904761D01*
X159000000Y-112952380D01*
X158904761Y-112952380D01*
X158761904Y-112904761D01*
X158714285Y-112857142D01*
X158714285Y-112523809D01*
X158904761Y-112523809D01*
X158285714Y-112952380D02*
X158285714Y-111952380D01*
X157714285Y-112952380D01*
X157714285Y-111952380D01*
X157238095Y-112952380D02*
X157238095Y-111952380D01*
X157000000Y-111952380D01*
X156857142Y-112000000D01*
X156761904Y-112095238D01*
X156714285Y-112190476D01*
X156666666Y-112380952D01*
X156666666Y-112523809D01*
X156714285Y-112714285D01*
X156761904Y-112809523D01*
X156857142Y-112904761D01*
X157000000Y-112952380D01*
X157238095Y-112952380D01*
X158166666Y-121047619D02*
X158166666Y-120333333D01*
X158119047Y-120190476D01*
X158023809Y-120095238D01*
X157880952Y-120047619D01*
X157785714Y-120047619D01*
X159166666Y-120047619D02*
X158595238Y-120047619D01*
X158880952Y-120047619D02*
X158880952Y-121047619D01*
X158785714Y-120904761D01*
X158690476Y-120809523D01*
X158595238Y-120761904D01*
%LPC*%
D11*
X155000000Y-117000000D03*
X155000000Y-114500000D03*
X142500000Y-114000000D03*
D12*
X142500000Y-124160000D03*
D13*
X150000000Y-115000000D03*
D14*
X147460000Y-115000000D03*
D15*
X156750000Y-126250000D03*
X150250000Y-126250000D03*
X150250000Y-121750000D03*
X156750000Y-121750000D03*
D16*
X158000000Y-114460000D03*
X158000000Y-117000000D03*
M02*
