G04 #@! TF.GenerationSoftware,KiCad,Pcbnew,(6.0.9-0)*
G04 #@! TF.CreationDate,2022-12-03T16:28:07+09:00*
G04 #@! TF.ProjectId,LEDchika,4c454463-6869-46b6-912e-6b696361645f,rev?*
G04 #@! TF.SameCoordinates,Original*
G04 #@! TF.FileFunction,Copper,L1,Top*
G04 #@! TF.FilePolarity,Positive*
%FSLAX46Y46*%
G04 Gerber Fmt 4.6, Leading zero omitted, Abs format (unit mm)*
G04 Created by KiCad (PCBNEW (6.0.9-0)) date 2022-12-03 16:28:07*
%MOMM*%
%LPD*%
G01*
G04 APERTURE LIST*
G04 #@! TA.AperFunction,ComponentPad*
%ADD10C,1.600000*%
G04 #@! TD*
G04 #@! TA.AperFunction,ComponentPad*
%ADD11O,1.600000X1.600000*%
G04 #@! TD*
G04 #@! TA.AperFunction,ComponentPad*
%ADD12R,1.800000X1.800000*%
G04 #@! TD*
G04 #@! TA.AperFunction,ComponentPad*
%ADD13C,1.800000*%
G04 #@! TD*
G04 #@! TA.AperFunction,ComponentPad*
%ADD14C,2.000000*%
G04 #@! TD*
G04 #@! TA.AperFunction,Conductor*
%ADD15C,0.500000*%
G04 #@! TD*
G04 APERTURE END LIST*
D10*
X155000000Y-117000000D03*
X155000000Y-114500000D03*
X142500000Y-114000000D03*
D11*
X142500000Y-124160000D03*
D12*
X150000000Y-115000000D03*
D13*
X147460000Y-115000000D03*
D14*
X156750000Y-126250000D03*
X150250000Y-126250000D03*
X150250000Y-121750000D03*
X156750000Y-121750000D03*
D15*
X152000000Y-120000000D02*
X150250000Y-121750000D01*
X155000000Y-117000000D02*
X155000000Y-120000000D01*
X155000000Y-120000000D02*
X152000000Y-120000000D01*
X155000000Y-120000000D02*
X156750000Y-121750000D01*
X143000000Y-114000000D02*
X146460000Y-114000000D01*
X146460000Y-114000000D02*
X147460000Y-115000000D01*
X150250000Y-126250000D02*
X148160000Y-124160000D01*
X156750000Y-126250000D02*
X150250000Y-126250000D01*
X148160000Y-124160000D02*
X143000000Y-124160000D01*
G04 #@! TA.AperFunction,Conductor*
G36*
X159433621Y-110528502D02*
G01*
X159480114Y-110582158D01*
X159491500Y-110634500D01*
X159491500Y-129365500D01*
X159471498Y-129433621D01*
X159417842Y-129480114D01*
X159365500Y-129491500D01*
X140634500Y-129491500D01*
X140566379Y-129471498D01*
X140519886Y-129417842D01*
X140508500Y-129365500D01*
X140508500Y-124160000D01*
X141186502Y-124160000D01*
X141206457Y-124388087D01*
X141265716Y-124609243D01*
X141268039Y-124614224D01*
X141268039Y-124614225D01*
X141360151Y-124811762D01*
X141360154Y-124811767D01*
X141362477Y-124816749D01*
X141493802Y-125004300D01*
X141655700Y-125166198D01*
X141660208Y-125169355D01*
X141660211Y-125169357D01*
X141738389Y-125224098D01*
X141843251Y-125297523D01*
X141848233Y-125299846D01*
X141848238Y-125299849D01*
X141987530Y-125364801D01*
X142050757Y-125394284D01*
X142056065Y-125395706D01*
X142056067Y-125395707D01*
X142266598Y-125452119D01*
X142266600Y-125452119D01*
X142271913Y-125453543D01*
X142500000Y-125473498D01*
X142728087Y-125453543D01*
X142733400Y-125452119D01*
X142733402Y-125452119D01*
X142943933Y-125395707D01*
X142943935Y-125395706D01*
X142949243Y-125394284D01*
X143012470Y-125364801D01*
X143151762Y-125299849D01*
X143151767Y-125299846D01*
X143156749Y-125297523D01*
X143261611Y-125224098D01*
X143339789Y-125169357D01*
X143339792Y-125169355D01*
X143344300Y-125166198D01*
X143506198Y-125004300D01*
X143528655Y-124972229D01*
X143584110Y-124927901D01*
X143631867Y-124918500D01*
X147793629Y-124918500D01*
X147861750Y-124938502D01*
X147882724Y-124955405D01*
X148741412Y-125814093D01*
X148775438Y-125876405D01*
X148774836Y-125932602D01*
X148756620Y-126008476D01*
X148756619Y-126008482D01*
X148755465Y-126013289D01*
X148736835Y-126250000D01*
X148755465Y-126486711D01*
X148810895Y-126717594D01*
X148901760Y-126936963D01*
X148904346Y-126941183D01*
X149023241Y-127135202D01*
X149023245Y-127135208D01*
X149025824Y-127139416D01*
X149180031Y-127319969D01*
X149360584Y-127474176D01*
X149364792Y-127476755D01*
X149364798Y-127476759D01*
X149558817Y-127595654D01*
X149563037Y-127598240D01*
X149567607Y-127600133D01*
X149567611Y-127600135D01*
X149777833Y-127687211D01*
X149782406Y-127689105D01*
X149862609Y-127708360D01*
X150008476Y-127743380D01*
X150008482Y-127743381D01*
X150013289Y-127744535D01*
X150250000Y-127763165D01*
X150486711Y-127744535D01*
X150491518Y-127743381D01*
X150491524Y-127743380D01*
X150637391Y-127708360D01*
X150717594Y-127689105D01*
X150722167Y-127687211D01*
X150932389Y-127600135D01*
X150932393Y-127600133D01*
X150936963Y-127598240D01*
X150941183Y-127595654D01*
X151135202Y-127476759D01*
X151135208Y-127476755D01*
X151139416Y-127474176D01*
X151319969Y-127319969D01*
X151474176Y-127139416D01*
X151517533Y-127068664D01*
X151570181Y-127021033D01*
X151624965Y-127008500D01*
X155375035Y-127008500D01*
X155443156Y-127028502D01*
X155482466Y-127068663D01*
X155525824Y-127139416D01*
X155680031Y-127319969D01*
X155860584Y-127474176D01*
X155864792Y-127476755D01*
X155864798Y-127476759D01*
X156058817Y-127595654D01*
X156063037Y-127598240D01*
X156067607Y-127600133D01*
X156067611Y-127600135D01*
X156277833Y-127687211D01*
X156282406Y-127689105D01*
X156362609Y-127708360D01*
X156508476Y-127743380D01*
X156508482Y-127743381D01*
X156513289Y-127744535D01*
X156750000Y-127763165D01*
X156986711Y-127744535D01*
X156991518Y-127743381D01*
X156991524Y-127743380D01*
X157137391Y-127708360D01*
X157217594Y-127689105D01*
X157222167Y-127687211D01*
X157432389Y-127600135D01*
X157432393Y-127600133D01*
X157436963Y-127598240D01*
X157441183Y-127595654D01*
X157635202Y-127476759D01*
X157635208Y-127476755D01*
X157639416Y-127474176D01*
X157819969Y-127319969D01*
X157974176Y-127139416D01*
X157976755Y-127135208D01*
X157976759Y-127135202D01*
X158095654Y-126941183D01*
X158098240Y-126936963D01*
X158189105Y-126717594D01*
X158244535Y-126486711D01*
X158263165Y-126250000D01*
X158244535Y-126013289D01*
X158189105Y-125782406D01*
X158098240Y-125563037D01*
X158042145Y-125471498D01*
X157976759Y-125364798D01*
X157976755Y-125364792D01*
X157974176Y-125360584D01*
X157819969Y-125180031D01*
X157639416Y-125025824D01*
X157635208Y-125023245D01*
X157635202Y-125023241D01*
X157441183Y-124904346D01*
X157436963Y-124901760D01*
X157432393Y-124899867D01*
X157432389Y-124899865D01*
X157222167Y-124812789D01*
X157222165Y-124812788D01*
X157217594Y-124810895D01*
X157136012Y-124791309D01*
X156991524Y-124756620D01*
X156991518Y-124756619D01*
X156986711Y-124755465D01*
X156750000Y-124736835D01*
X156513289Y-124755465D01*
X156508482Y-124756619D01*
X156508476Y-124756620D01*
X156363988Y-124791309D01*
X156282406Y-124810895D01*
X156277835Y-124812788D01*
X156277833Y-124812789D01*
X156067611Y-124899865D01*
X156067607Y-124899867D01*
X156063037Y-124901760D01*
X156058817Y-124904346D01*
X155864798Y-125023241D01*
X155864792Y-125023245D01*
X155860584Y-125025824D01*
X155680031Y-125180031D01*
X155525824Y-125360584D01*
X155482467Y-125431336D01*
X155429819Y-125478967D01*
X155375035Y-125491500D01*
X151624965Y-125491500D01*
X151556844Y-125471498D01*
X151517533Y-125431336D01*
X151474176Y-125360584D01*
X151319969Y-125180031D01*
X151139416Y-125025824D01*
X151135208Y-125023245D01*
X151135202Y-125023241D01*
X150941183Y-124904346D01*
X150936963Y-124901760D01*
X150932393Y-124899867D01*
X150932389Y-124899865D01*
X150722167Y-124812789D01*
X150722165Y-124812788D01*
X150717594Y-124810895D01*
X150636012Y-124791309D01*
X150491524Y-124756620D01*
X150491518Y-124756619D01*
X150486711Y-124755465D01*
X150250000Y-124736835D01*
X150013289Y-124755465D01*
X150008482Y-124756619D01*
X150008476Y-124756620D01*
X149932602Y-124774836D01*
X149861694Y-124771289D01*
X149814093Y-124741412D01*
X148743770Y-123671089D01*
X148731384Y-123656677D01*
X148722851Y-123645082D01*
X148722846Y-123645077D01*
X148718508Y-123639182D01*
X148712930Y-123634443D01*
X148712927Y-123634440D01*
X148678232Y-123604965D01*
X148670716Y-123598035D01*
X148665021Y-123592340D01*
X148658880Y-123587482D01*
X148642749Y-123574719D01*
X148639345Y-123571928D01*
X148589297Y-123529409D01*
X148589295Y-123529408D01*
X148583715Y-123524667D01*
X148577199Y-123521339D01*
X148572150Y-123517972D01*
X148567021Y-123514805D01*
X148561284Y-123510266D01*
X148495125Y-123479345D01*
X148491225Y-123477439D01*
X148426192Y-123444231D01*
X148419084Y-123442492D01*
X148413441Y-123440393D01*
X148407678Y-123438476D01*
X148401050Y-123435378D01*
X148329583Y-123420513D01*
X148325299Y-123419543D01*
X148254390Y-123402192D01*
X148248788Y-123401844D01*
X148248785Y-123401844D01*
X148243236Y-123401500D01*
X148243238Y-123401464D01*
X148239245Y-123401225D01*
X148235053Y-123400851D01*
X148227885Y-123399360D01*
X148161675Y-123401151D01*
X148150479Y-123401454D01*
X148147072Y-123401500D01*
X143631867Y-123401500D01*
X143563746Y-123381498D01*
X143528655Y-123347772D01*
X143506198Y-123315700D01*
X143344300Y-123153802D01*
X143339792Y-123150645D01*
X143339789Y-123150643D01*
X143260615Y-123095205D01*
X143156749Y-123022477D01*
X143151767Y-123020154D01*
X143151762Y-123020151D01*
X143071383Y-122982670D01*
X149382160Y-122982670D01*
X149387887Y-122990320D01*
X149559042Y-123095205D01*
X149567837Y-123099687D01*
X149777988Y-123186734D01*
X149787373Y-123189783D01*
X150008554Y-123242885D01*
X150018301Y-123244428D01*
X150245070Y-123262275D01*
X150254930Y-123262275D01*
X150481699Y-123244428D01*
X150491446Y-123242885D01*
X150712627Y-123189783D01*
X150722012Y-123186734D01*
X150932163Y-123099687D01*
X150940958Y-123095205D01*
X151108445Y-122992568D01*
X151117400Y-122982670D01*
X155882160Y-122982670D01*
X155887887Y-122990320D01*
X156059042Y-123095205D01*
X156067837Y-123099687D01*
X156277988Y-123186734D01*
X156287373Y-123189783D01*
X156508554Y-123242885D01*
X156518301Y-123244428D01*
X156745070Y-123262275D01*
X156754930Y-123262275D01*
X156981699Y-123244428D01*
X156991446Y-123242885D01*
X157212627Y-123189783D01*
X157222012Y-123186734D01*
X157432163Y-123099687D01*
X157440958Y-123095205D01*
X157608445Y-122992568D01*
X157617907Y-122982110D01*
X157614124Y-122973334D01*
X156762812Y-122122022D01*
X156748868Y-122114408D01*
X156747035Y-122114539D01*
X156740420Y-122118790D01*
X155888920Y-122970290D01*
X155882160Y-122982670D01*
X151117400Y-122982670D01*
X151117907Y-122982110D01*
X151114124Y-122973334D01*
X150262812Y-122122022D01*
X150248868Y-122114408D01*
X150247035Y-122114539D01*
X150240420Y-122118790D01*
X149388920Y-122970290D01*
X149382160Y-122982670D01*
X143071383Y-122982670D01*
X142954225Y-122928039D01*
X142954224Y-122928039D01*
X142949243Y-122925716D01*
X142943935Y-122924294D01*
X142943933Y-122924293D01*
X142733402Y-122867881D01*
X142733400Y-122867881D01*
X142728087Y-122866457D01*
X142500000Y-122846502D01*
X142271913Y-122866457D01*
X142266600Y-122867881D01*
X142266598Y-122867881D01*
X142056067Y-122924293D01*
X142056065Y-122924294D01*
X142050757Y-122925716D01*
X142045776Y-122928039D01*
X142045775Y-122928039D01*
X141848238Y-123020151D01*
X141848233Y-123020154D01*
X141843251Y-123022477D01*
X141739385Y-123095205D01*
X141660211Y-123150643D01*
X141660208Y-123150645D01*
X141655700Y-123153802D01*
X141493802Y-123315700D01*
X141362477Y-123503251D01*
X141360154Y-123508233D01*
X141360151Y-123508238D01*
X141290934Y-123656677D01*
X141265716Y-123710757D01*
X141206457Y-123931913D01*
X141186502Y-124160000D01*
X140508500Y-124160000D01*
X140508500Y-121754930D01*
X148737725Y-121754930D01*
X148755572Y-121981699D01*
X148757115Y-121991446D01*
X148810217Y-122212627D01*
X148813266Y-122222012D01*
X148900313Y-122432163D01*
X148904795Y-122440958D01*
X149007432Y-122608445D01*
X149017890Y-122617907D01*
X149026666Y-122614124D01*
X149877978Y-121762812D01*
X149884356Y-121751132D01*
X150614408Y-121751132D01*
X150614539Y-121752965D01*
X150618790Y-121759580D01*
X151470290Y-122611080D01*
X151482670Y-122617840D01*
X151490320Y-122612113D01*
X151595205Y-122440958D01*
X151599687Y-122432163D01*
X151686734Y-122222012D01*
X151689783Y-122212627D01*
X151742885Y-121991446D01*
X151744428Y-121981699D01*
X151762275Y-121754930D01*
X155237725Y-121754930D01*
X155255572Y-121981699D01*
X155257115Y-121991446D01*
X155310217Y-122212627D01*
X155313266Y-122222012D01*
X155400313Y-122432163D01*
X155404795Y-122440958D01*
X155507432Y-122608445D01*
X155517890Y-122617907D01*
X155526666Y-122614124D01*
X156377978Y-121762812D01*
X156384356Y-121751132D01*
X157114408Y-121751132D01*
X157114539Y-121752965D01*
X157118790Y-121759580D01*
X157970290Y-122611080D01*
X157982670Y-122617840D01*
X157990320Y-122612113D01*
X158095205Y-122440958D01*
X158099687Y-122432163D01*
X158186734Y-122222012D01*
X158189783Y-122212627D01*
X158242885Y-121991446D01*
X158244428Y-121981699D01*
X158262275Y-121754930D01*
X158262275Y-121745070D01*
X158244428Y-121518301D01*
X158242885Y-121508554D01*
X158189783Y-121287373D01*
X158186734Y-121277988D01*
X158099687Y-121067837D01*
X158095205Y-121059042D01*
X157992568Y-120891555D01*
X157982110Y-120882093D01*
X157973334Y-120885876D01*
X157122022Y-121737188D01*
X157114408Y-121751132D01*
X156384356Y-121751132D01*
X156385592Y-121748868D01*
X156385461Y-121747035D01*
X156381210Y-121740420D01*
X155529710Y-120888920D01*
X155517330Y-120882160D01*
X155509680Y-120887887D01*
X155404795Y-121059042D01*
X155400313Y-121067837D01*
X155313266Y-121277988D01*
X155310217Y-121287373D01*
X155257115Y-121508554D01*
X155255572Y-121518301D01*
X155237725Y-121745070D01*
X155237725Y-121754930D01*
X151762275Y-121754930D01*
X151762275Y-121745070D01*
X151744428Y-121518301D01*
X151742885Y-121508554D01*
X151689783Y-121287373D01*
X151686734Y-121277988D01*
X151599687Y-121067837D01*
X151595205Y-121059042D01*
X151492568Y-120891555D01*
X151482110Y-120882093D01*
X151473334Y-120885876D01*
X150622022Y-121737188D01*
X150614408Y-121751132D01*
X149884356Y-121751132D01*
X149885592Y-121748868D01*
X149885461Y-121747035D01*
X149881210Y-121740420D01*
X149029710Y-120888920D01*
X149017330Y-120882160D01*
X149009680Y-120887887D01*
X148904795Y-121059042D01*
X148900313Y-121067837D01*
X148813266Y-121277988D01*
X148810217Y-121287373D01*
X148757115Y-121508554D01*
X148755572Y-121518301D01*
X148737725Y-121745070D01*
X148737725Y-121754930D01*
X140508500Y-121754930D01*
X140508500Y-120517890D01*
X149382093Y-120517890D01*
X149385876Y-120526666D01*
X150237188Y-121377978D01*
X150251132Y-121385592D01*
X150252965Y-121385461D01*
X150259580Y-121381210D01*
X151111080Y-120529710D01*
X151117534Y-120517890D01*
X155882093Y-120517890D01*
X155885876Y-120526666D01*
X156737188Y-121377978D01*
X156751132Y-121385592D01*
X156752965Y-121385461D01*
X156759580Y-121381210D01*
X157611080Y-120529710D01*
X157617840Y-120517330D01*
X157612113Y-120509680D01*
X157440958Y-120404795D01*
X157432163Y-120400313D01*
X157222012Y-120313266D01*
X157212627Y-120310217D01*
X156991446Y-120257115D01*
X156981699Y-120255572D01*
X156754930Y-120237725D01*
X156745070Y-120237725D01*
X156518301Y-120255572D01*
X156508554Y-120257115D01*
X156287373Y-120310217D01*
X156277988Y-120313266D01*
X156067837Y-120400313D01*
X156059042Y-120404795D01*
X155891555Y-120507432D01*
X155882093Y-120517890D01*
X151117534Y-120517890D01*
X151117840Y-120517330D01*
X151112113Y-120509680D01*
X150940958Y-120404795D01*
X150932163Y-120400313D01*
X150722012Y-120313266D01*
X150712627Y-120310217D01*
X150491446Y-120257115D01*
X150481699Y-120255572D01*
X150254930Y-120237725D01*
X150245070Y-120237725D01*
X150018301Y-120255572D01*
X150008554Y-120257115D01*
X149787373Y-120310217D01*
X149777988Y-120313266D01*
X149567837Y-120400313D01*
X149559042Y-120404795D01*
X149391555Y-120507432D01*
X149382093Y-120517890D01*
X140508500Y-120517890D01*
X140508500Y-118086062D01*
X154278493Y-118086062D01*
X154287789Y-118098077D01*
X154338994Y-118133931D01*
X154348489Y-118139414D01*
X154545947Y-118231490D01*
X154556239Y-118235236D01*
X154766688Y-118291625D01*
X154777481Y-118293528D01*
X154994525Y-118312517D01*
X155005475Y-118312517D01*
X155222519Y-118293528D01*
X155233312Y-118291625D01*
X155443761Y-118235236D01*
X155454053Y-118231490D01*
X155651511Y-118139414D01*
X155661006Y-118133931D01*
X155713048Y-118097491D01*
X155721424Y-118087012D01*
X155714356Y-118073566D01*
X155012812Y-117372022D01*
X154998868Y-117364408D01*
X154997035Y-117364539D01*
X154990420Y-117368790D01*
X154284923Y-118074287D01*
X154278493Y-118086062D01*
X140508500Y-118086062D01*
X140508500Y-117005475D01*
X153687483Y-117005475D01*
X153706472Y-117222519D01*
X153708375Y-117233312D01*
X153764764Y-117443761D01*
X153768510Y-117454053D01*
X153860586Y-117651511D01*
X153866069Y-117661006D01*
X153902509Y-117713048D01*
X153912988Y-117721424D01*
X153926434Y-117714356D01*
X154627978Y-117012812D01*
X154634356Y-117001132D01*
X155364408Y-117001132D01*
X155364539Y-117002965D01*
X155368790Y-117009580D01*
X156074287Y-117715077D01*
X156086062Y-117721507D01*
X156098077Y-117712211D01*
X156133931Y-117661006D01*
X156139414Y-117651511D01*
X156231490Y-117454053D01*
X156235236Y-117443761D01*
X156291625Y-117233312D01*
X156293528Y-117222519D01*
X156312517Y-117005475D01*
X156312517Y-116994525D01*
X156293528Y-116777481D01*
X156291625Y-116766688D01*
X156235236Y-116556239D01*
X156231490Y-116545947D01*
X156139414Y-116348489D01*
X156133931Y-116338994D01*
X156097491Y-116286952D01*
X156087012Y-116278576D01*
X156073566Y-116285644D01*
X155372022Y-116987188D01*
X155364408Y-117001132D01*
X154634356Y-117001132D01*
X154635592Y-116998868D01*
X154635461Y-116997035D01*
X154631210Y-116990420D01*
X153925713Y-116284923D01*
X153913938Y-116278493D01*
X153901923Y-116287789D01*
X153866069Y-116338994D01*
X153860586Y-116348489D01*
X153768510Y-116545947D01*
X153764764Y-116556239D01*
X153708375Y-116766688D01*
X153706472Y-116777481D01*
X153687483Y-116994525D01*
X153687483Y-117005475D01*
X140508500Y-117005475D01*
X140508500Y-114000000D01*
X141186502Y-114000000D01*
X141206457Y-114228087D01*
X141207881Y-114233400D01*
X141207881Y-114233402D01*
X141219669Y-114277393D01*
X141265716Y-114449243D01*
X141268039Y-114454224D01*
X141268039Y-114454225D01*
X141360151Y-114651762D01*
X141360154Y-114651767D01*
X141362477Y-114656749D01*
X141493802Y-114844300D01*
X141655700Y-115006198D01*
X141660208Y-115009355D01*
X141660211Y-115009357D01*
X141738389Y-115064098D01*
X141843251Y-115137523D01*
X141848233Y-115139846D01*
X141848238Y-115139849D01*
X142045775Y-115231961D01*
X142050757Y-115234284D01*
X142056065Y-115235706D01*
X142056067Y-115235707D01*
X142266598Y-115292119D01*
X142266600Y-115292119D01*
X142271913Y-115293543D01*
X142500000Y-115313498D01*
X142728087Y-115293543D01*
X142733400Y-115292119D01*
X142733402Y-115292119D01*
X142943933Y-115235707D01*
X142943935Y-115235706D01*
X142949243Y-115234284D01*
X142954225Y-115231961D01*
X143151762Y-115139849D01*
X143151767Y-115139846D01*
X143156749Y-115137523D01*
X143261611Y-115064098D01*
X143339789Y-115009357D01*
X143339792Y-115009355D01*
X143344300Y-115006198D01*
X143506198Y-114844300D01*
X143528655Y-114812229D01*
X143584110Y-114767901D01*
X143631867Y-114758500D01*
X145929030Y-114758500D01*
X145997151Y-114778502D01*
X146043644Y-114832158D01*
X146054317Y-114897889D01*
X146047643Y-114960336D01*
X146047643Y-114960343D01*
X146047095Y-114965469D01*
X146047392Y-114970622D01*
X146047392Y-114970625D01*
X146049443Y-115006198D01*
X146060427Y-115196697D01*
X146061564Y-115201743D01*
X146061565Y-115201749D01*
X146069218Y-115235707D01*
X146111346Y-115422642D01*
X146113288Y-115427424D01*
X146113289Y-115427428D01*
X146146557Y-115509357D01*
X146198484Y-115637237D01*
X146319501Y-115834719D01*
X146471147Y-116009784D01*
X146649349Y-116157730D01*
X146849322Y-116274584D01*
X146854147Y-116276426D01*
X146854148Y-116276427D01*
X146859776Y-116278576D01*
X147065694Y-116357209D01*
X147070760Y-116358240D01*
X147070761Y-116358240D01*
X147123846Y-116369040D01*
X147292656Y-116403385D01*
X147422089Y-116408131D01*
X147518949Y-116411683D01*
X147518953Y-116411683D01*
X147524113Y-116411872D01*
X147529233Y-116411216D01*
X147529235Y-116411216D01*
X147603166Y-116401745D01*
X147753847Y-116382442D01*
X147758795Y-116380957D01*
X147758802Y-116380956D01*
X147970747Y-116317369D01*
X147975690Y-116315886D01*
X147980324Y-116313616D01*
X148179049Y-116216262D01*
X148179052Y-116216260D01*
X148183684Y-116213991D01*
X148372243Y-116079494D01*
X148417309Y-116034585D01*
X148479681Y-116000669D01*
X148550487Y-116005857D01*
X148607249Y-116048503D01*
X148624231Y-116079607D01*
X148649385Y-116146705D01*
X148736739Y-116263261D01*
X148853295Y-116350615D01*
X148989684Y-116401745D01*
X149051866Y-116408500D01*
X150948134Y-116408500D01*
X151010316Y-116401745D01*
X151146705Y-116350615D01*
X151263261Y-116263261D01*
X151350615Y-116146705D01*
X151401745Y-116010316D01*
X151408500Y-115948134D01*
X151408500Y-114500000D01*
X153686502Y-114500000D01*
X153706457Y-114728087D01*
X153707881Y-114733400D01*
X153707881Y-114733402D01*
X153751956Y-114897889D01*
X153765716Y-114949243D01*
X153768039Y-114954224D01*
X153768039Y-114954225D01*
X153860151Y-115151762D01*
X153860154Y-115151767D01*
X153862477Y-115156749D01*
X153993802Y-115344300D01*
X154155700Y-115506198D01*
X154160208Y-115509355D01*
X154160211Y-115509357D01*
X154263876Y-115581944D01*
X154343251Y-115637523D01*
X154348235Y-115639847D01*
X154350528Y-115641171D01*
X154399521Y-115692553D01*
X154412957Y-115762267D01*
X154386571Y-115828178D01*
X154350528Y-115859409D01*
X154338998Y-115866066D01*
X154286952Y-115902509D01*
X154278576Y-115912988D01*
X154285644Y-115926434D01*
X154987188Y-116627978D01*
X155001132Y-116635592D01*
X155002965Y-116635461D01*
X155009580Y-116631210D01*
X155715077Y-115925713D01*
X155721507Y-115913938D01*
X155712211Y-115901923D01*
X155661002Y-115866066D01*
X155649472Y-115859409D01*
X155600479Y-115808027D01*
X155587042Y-115738313D01*
X155613429Y-115672402D01*
X155649472Y-115641171D01*
X155651765Y-115639847D01*
X155656749Y-115637523D01*
X155736124Y-115581944D01*
X155839789Y-115509357D01*
X155839792Y-115509355D01*
X155844300Y-115506198D01*
X156006198Y-115344300D01*
X156137523Y-115156749D01*
X156139846Y-115151767D01*
X156139849Y-115151762D01*
X156231961Y-114954225D01*
X156231961Y-114954224D01*
X156234284Y-114949243D01*
X156248045Y-114897889D01*
X156292119Y-114733402D01*
X156292119Y-114733400D01*
X156293543Y-114728087D01*
X156313498Y-114500000D01*
X156293543Y-114271913D01*
X156281800Y-114228087D01*
X156235707Y-114056067D01*
X156235706Y-114056065D01*
X156234284Y-114050757D01*
X156208063Y-113994525D01*
X156139849Y-113848238D01*
X156139846Y-113848233D01*
X156137523Y-113843251D01*
X156006198Y-113655700D01*
X155844300Y-113493802D01*
X155839792Y-113490645D01*
X155839789Y-113490643D01*
X155727372Y-113411928D01*
X155656749Y-113362477D01*
X155651767Y-113360154D01*
X155651762Y-113360151D01*
X155454225Y-113268039D01*
X155454224Y-113268039D01*
X155449243Y-113265716D01*
X155443935Y-113264294D01*
X155443933Y-113264293D01*
X155233402Y-113207881D01*
X155233400Y-113207881D01*
X155228087Y-113206457D01*
X155000000Y-113186502D01*
X154771913Y-113206457D01*
X154766600Y-113207881D01*
X154766598Y-113207881D01*
X154556067Y-113264293D01*
X154556065Y-113264294D01*
X154550757Y-113265716D01*
X154545776Y-113268039D01*
X154545775Y-113268039D01*
X154348238Y-113360151D01*
X154348233Y-113360154D01*
X154343251Y-113362477D01*
X154272628Y-113411928D01*
X154160211Y-113490643D01*
X154160208Y-113490645D01*
X154155700Y-113493802D01*
X153993802Y-113655700D01*
X153862477Y-113843251D01*
X153860154Y-113848233D01*
X153860151Y-113848238D01*
X153791937Y-113994525D01*
X153765716Y-114050757D01*
X153764294Y-114056065D01*
X153764293Y-114056067D01*
X153718200Y-114228087D01*
X153706457Y-114271913D01*
X153686502Y-114500000D01*
X151408500Y-114500000D01*
X151408500Y-114051866D01*
X151401745Y-113989684D01*
X151350615Y-113853295D01*
X151263261Y-113736739D01*
X151146705Y-113649385D01*
X151010316Y-113598255D01*
X150948134Y-113591500D01*
X149051866Y-113591500D01*
X148989684Y-113598255D01*
X148853295Y-113649385D01*
X148736739Y-113736739D01*
X148649385Y-113853295D01*
X148646233Y-113861703D01*
X148646232Y-113861705D01*
X148625538Y-113916906D01*
X148582897Y-113973671D01*
X148516335Y-113998371D01*
X148446986Y-113983164D01*
X148424167Y-113966666D01*
X148423887Y-113966358D01*
X148291373Y-113861705D01*
X148246177Y-113826011D01*
X148246172Y-113826008D01*
X148242123Y-113822810D01*
X148237607Y-113820317D01*
X148237604Y-113820315D01*
X148043879Y-113713373D01*
X148043875Y-113713371D01*
X148039355Y-113710876D01*
X148034486Y-113709152D01*
X148034482Y-113709150D01*
X147825903Y-113635288D01*
X147825899Y-113635287D01*
X147821028Y-113633562D01*
X147815935Y-113632655D01*
X147815932Y-113632654D01*
X147598095Y-113593851D01*
X147598089Y-113593850D01*
X147593006Y-113592945D01*
X147520096Y-113592054D01*
X147366581Y-113590179D01*
X147366579Y-113590179D01*
X147361411Y-113590116D01*
X147217515Y-113612135D01*
X147147152Y-113602667D01*
X147109361Y-113576680D01*
X147043770Y-113511089D01*
X147031384Y-113496677D01*
X147022851Y-113485082D01*
X147022846Y-113485077D01*
X147018508Y-113479182D01*
X147012930Y-113474443D01*
X147012927Y-113474440D01*
X146978232Y-113444965D01*
X146970716Y-113438035D01*
X146965021Y-113432340D01*
X146958880Y-113427482D01*
X146942749Y-113414719D01*
X146939345Y-113411928D01*
X146889297Y-113369409D01*
X146889295Y-113369408D01*
X146883715Y-113364667D01*
X146877199Y-113361339D01*
X146872150Y-113357972D01*
X146867021Y-113354805D01*
X146861284Y-113350266D01*
X146795125Y-113319345D01*
X146791225Y-113317439D01*
X146726192Y-113284231D01*
X146719084Y-113282492D01*
X146713441Y-113280393D01*
X146707678Y-113278476D01*
X146701050Y-113275378D01*
X146629583Y-113260513D01*
X146625299Y-113259543D01*
X146554390Y-113242192D01*
X146548788Y-113241844D01*
X146548785Y-113241844D01*
X146543236Y-113241500D01*
X146543238Y-113241464D01*
X146539245Y-113241225D01*
X146535053Y-113240851D01*
X146527885Y-113239360D01*
X146461675Y-113241151D01*
X146450479Y-113241454D01*
X146447072Y-113241500D01*
X143631867Y-113241500D01*
X143563746Y-113221498D01*
X143528655Y-113187772D01*
X143506198Y-113155700D01*
X143344300Y-112993802D01*
X143339792Y-112990645D01*
X143339789Y-112990643D01*
X143261611Y-112935902D01*
X143156749Y-112862477D01*
X143151767Y-112860154D01*
X143151762Y-112860151D01*
X142954225Y-112768039D01*
X142954224Y-112768039D01*
X142949243Y-112765716D01*
X142943935Y-112764294D01*
X142943933Y-112764293D01*
X142733402Y-112707881D01*
X142733400Y-112707881D01*
X142728087Y-112706457D01*
X142500000Y-112686502D01*
X142271913Y-112706457D01*
X142266600Y-112707881D01*
X142266598Y-112707881D01*
X142056067Y-112764293D01*
X142056065Y-112764294D01*
X142050757Y-112765716D01*
X142045776Y-112768039D01*
X142045775Y-112768039D01*
X141848238Y-112860151D01*
X141848233Y-112860154D01*
X141843251Y-112862477D01*
X141738389Y-112935902D01*
X141660211Y-112990643D01*
X141660208Y-112990645D01*
X141655700Y-112993802D01*
X141493802Y-113155700D01*
X141362477Y-113343251D01*
X141360154Y-113348233D01*
X141360151Y-113348238D01*
X141293747Y-113490643D01*
X141265716Y-113550757D01*
X141264294Y-113556065D01*
X141264293Y-113556067D01*
X141237845Y-113654771D01*
X141206457Y-113771913D01*
X141186502Y-114000000D01*
X140508500Y-114000000D01*
X140508500Y-110634500D01*
X140528502Y-110566379D01*
X140582158Y-110519886D01*
X140634500Y-110508500D01*
X159365500Y-110508500D01*
X159433621Y-110528502D01*
G37*
G04 #@! TD.AperFunction*
M02*
